<svg xmlns="http://www.w3.org/2000/svg" viewBox="0 0 256 256" width="48" height="48"><g fill="none" stroke-miterlimit="10" font-family="none" font-weight="none" font-size="none" text-anchor="none" style="mix-blend-mode:normal"><path d="M229.333 112s0 .64-.053 1.867c0 .853-.053 1.92-.16 3.253-.533 6.72-2.347 19.467-8.107 34.987-8.906 23.786-27.146 54.026-64.906 78.666-8.214 5.387-17.334 10.507-27.467 15.2v-32.64H128c-55.733 0-101.333-45.6-101.333-101.333S72.267 10.667 128 10.667 229.333 56.267 229.333 112z" fill="#4318ff"/><path d="M229.12 117.12c-.533 6.72-2.347 19.467-8.107 34.987-8.906 23.786-27.146 54.026-64.906 78.666l-83.36-83.36-1.494-1.493c-1.333-1.707-1.92-4.107-1.92-7.253V112.64l37.974-37.973h47.36c5.866 0 10.666 4.8 10.666 10.666v16L192 80z" fill="#2606b4"/><path d="M192 108v36l-26.667-21.333v16c0 5.866-4.8 10.666-10.666 10.666H80c-3.147 0-5.547-.586-7.253-1.92l-1.494-1.493c-1.333-1.707-1.92-4.107-1.92-7.253V108z" fill="#fff"/><path d="M192 80v32H69.333V85.333c0-7.36 3.307-10.666 10.667-10.666h74.667c5.866 0 10.666 4.8 10.666 10.666v16z" fill="#eceff1"/></g></svg>